<svg xmlns="http://www.w3.org/2000/svg" xmlns:xlink="http://www.w3.org/1999/xlink" width="500" zoomAndPan="magnify" viewBox="0 0 375 374.999991" height="500" preserveAspectRatio="xMidYMid meet" version="1.0"><defs><clipPath id="53eb778a37"><path d="M 112.5 258 L 261 258 L 261 260.53125 L 112.5 260.53125 Z M 112.5 258 " clip-rule="nonzero"/></clipPath><clipPath id="fc51849015"><path d="M 126 148 L 245 148 L 245 260.53125 L 126 260.53125 Z M 126 148 " clip-rule="nonzero"/></clipPath><clipPath id="1b8e241789"><path d="M 117 225 L 129 225 L 129 260.53125 L 117 260.53125 Z M 117 225 " clip-rule="nonzero"/></clipPath><clipPath id="4d8990db30"><path d="M 242 225 L 254 225 L 254 260.53125 L 242 260.53125 Z M 242 225 " clip-rule="nonzero"/></clipPath><clipPath id="9975b8a8b4"><path d="M 129 114.28125 L 132 114.28125 L 132 122 L 129 122 Z M 129 114.28125 " clip-rule="nonzero"/></clipPath><clipPath id="841e7f7813"><path d="M 254 133 L 262.5 133 L 262.5 142 L 254 142 Z M 254 133 " clip-rule="nonzero"/></clipPath><clipPath id="b024c4ea7b"><path d="M 112.5 258 L 261 258 L 261 260.53125 L 112.5 260.53125 Z M 112.5 258 " clip-rule="nonzero"/></clipPath><clipPath id="b45e1d6c38"><path d="M 126 148 L 245 148 L 245 260.53125 L 126 260.53125 Z M 126 148 " clip-rule="nonzero"/></clipPath><clipPath id="0d9a8b5454"><path d="M 117 225 L 129 225 L 129 260.53125 L 117 260.53125 Z M 117 225 " clip-rule="nonzero"/></clipPath><clipPath id="4579c9542d"><path d="M 242 225 L 254 225 L 254 260.53125 L 242 260.53125 Z M 242 225 " clip-rule="nonzero"/></clipPath><clipPath id="84c6f67420"><path d="M 129 114.28125 L 132 114.28125 L 132 122 L 129 122 Z M 129 114.28125 " clip-rule="nonzero"/></clipPath><clipPath id="7d8e321aae"><path d="M 254 133 L 262.5 133 L 262.5 142 L 254 142 Z M 254 133 " clip-rule="nonzero"/></clipPath></defs><g clip-path="url(#53eb778a37)"><path fill="#5e6175" d="M 112.5 258.445312 L 260.246094 258.445312 L 260.246094 260.472656 L 112.5 260.472656 Z M 112.5 258.445312 " fill-opacity="1" fill-rule="nonzero"/></g><path fill="#f5f5f5" d="M 127.761719 149.082031 L 127.761719 259.527344 L 136.082031 259.527344 L 136.082031 156.792969 L 235.195312 156.792969 L 235.195312 259.527344 L 243.15625 259.527344 L 243.15625 149.082031 Z M 127.761719 149.082031 " fill-opacity="1" fill-rule="nonzero"/><g clip-path="url(#fc51849015)"><path fill="#5e6175" d="M 244.167969 260.539062 L 234.183594 260.539062 L 234.183594 157.804688 L 137.097656 157.804688 L 137.097656 260.539062 L 126.75 260.539062 L 126.75 148.070312 L 244.167969 148.070312 Z M 236.210938 258.511719 L 242.140625 258.511719 L 242.140625 150.09375 L 128.777344 150.09375 L 128.777344 258.511719 L 135.070312 258.511719 L 135.070312 155.78125 L 236.210938 155.78125 Z M 236.210938 258.511719 " fill-opacity="1" fill-rule="nonzero"/></g><path fill="#dee1ec" d="M 234.214844 128.996094 L 136.703125 128.996094 C 136.117188 128.996094 135.535156 129.050781 134.960938 129.167969 C 134.382812 129.28125 133.824219 129.449219 133.28125 129.675781 C 132.742188 129.898438 132.226562 130.175781 131.738281 130.5 C 131.25 130.824219 130.796875 131.195312 130.382812 131.609375 C 129.96875 132.023438 129.597656 132.476562 129.269531 132.964844 C 128.945312 133.449219 128.667969 133.964844 128.445312 134.507812 C 128.21875 135.050781 128.050781 135.609375 127.933594 136.183594 C 127.820312 136.757812 127.761719 137.339844 127.761719 137.925781 L 127.761719 149.082031 L 243.15625 149.082031 L 243.15625 137.925781 C 243.15625 137.339844 243.097656 136.757812 242.984375 136.183594 C 242.867188 135.609375 242.699219 135.050781 242.472656 134.507812 C 242.25 133.964844 241.972656 133.449219 241.648438 132.964844 C 241.320312 132.476562 240.949219 132.023438 240.535156 131.609375 C 240.121094 131.195312 239.667969 130.824219 239.179688 130.5 C 238.691406 130.175781 238.175781 129.898438 237.636719 129.675781 C 237.09375 129.449219 236.535156 129.28125 235.957031 129.167969 C 235.382812 129.050781 234.800781 128.996094 234.214844 128.996094 Z M 234.214844 128.996094 " fill-opacity="1" fill-rule="nonzero"/><path fill="#5e6175" d="M 244.167969 150.09375 L 126.75 150.09375 L 126.75 137.925781 C 126.75 137.273438 126.816406 136.625 126.941406 135.984375 C 127.070312 135.347656 127.261719 134.726562 127.511719 134.121094 C 127.761719 133.519531 128.070312 132.945312 128.433594 132.40625 C 128.792969 131.863281 129.207031 131.359375 129.667969 130.898438 C 130.132812 130.4375 130.632812 130.023438 131.175781 129.664062 C 131.71875 129.300781 132.292969 128.992188 132.898438 128.742188 C 133.5 128.492188 134.121094 128.304688 134.761719 128.175781 C 135.40625 128.046875 136.050781 127.984375 136.703125 127.984375 L 234.214844 127.984375 C 234.867188 127.984375 235.511719 128.046875 236.15625 128.175781 C 236.796875 128.304688 237.417969 128.492188 238.019531 128.742188 C 238.625 128.992188 239.199219 129.300781 239.742188 129.664062 C 240.285156 130.023438 240.785156 130.4375 241.25 130.898438 C 241.710938 131.359375 242.125 131.863281 242.484375 132.40625 C 242.847656 132.945312 243.15625 133.519531 243.40625 134.121094 C 243.65625 134.726562 243.847656 135.347656 243.976562 135.984375 C 244.101562 136.625 244.167969 137.273438 244.167969 137.925781 Z M 128.777344 148.070312 L 242.140625 148.070312 L 242.140625 137.925781 C 242.140625 137.40625 242.089844 136.890625 241.988281 136.378906 C 241.882812 135.871094 241.734375 135.375 241.535156 134.894531 C 241.335938 134.417969 241.089844 133.960938 240.800781 133.527344 C 240.511719 133.097656 240.183594 132.695312 239.816406 132.328125 C 239.449219 131.960938 239.046875 131.632812 238.613281 131.34375 C 238.183594 131.054688 237.726562 130.8125 237.246094 130.613281 C 236.765625 130.414062 236.269531 130.261719 235.757812 130.160156 C 235.25 130.058594 234.734375 130.007812 234.214844 130.007812 L 136.703125 130.007812 C 136.183594 130.007812 135.667969 130.058594 135.160156 130.160156 C 134.648438 130.261719 134.152344 130.414062 133.671875 130.613281 C 133.191406 130.8125 132.734375 131.054688 132.300781 131.34375 C 131.871094 131.632812 131.46875 131.960938 131.101562 132.328125 C 130.734375 132.695312 130.40625 133.09375 130.117188 133.527344 C 129.828125 133.960938 129.582031 134.414062 129.382812 134.894531 C 129.183594 135.375 129.03125 135.871094 128.929688 136.378906 C 128.828125 136.890625 128.777344 137.40625 128.777344 137.925781 Z M 128.777344 148.070312 " fill-opacity="1" fill-rule="nonzero"/><path fill="#a9afc4" d="M 127.761719 227.652344 L 118.664062 236.742188 L 118.664062 259.457031 L 127.761719 259.457031 Z M 127.761719 227.652344 " fill-opacity="1" fill-rule="nonzero"/><g clip-path="url(#1b8e241789)"><path fill="#5e6175" d="M 128.777344 260.472656 L 117.648438 260.472656 L 117.648438 236.320312 L 128.777344 225.222656 Z M 119.675781 258.445312 L 126.75 258.445312 L 126.75 230.097656 L 119.675781 237.160156 Z M 119.675781 258.445312 " fill-opacity="1" fill-rule="nonzero"/></g><path fill="#a9afc4" d="M 243.15625 227.652344 L 252.25 236.742188 L 252.25 259.457031 L 243.15625 259.457031 Z M 243.15625 227.652344 " fill-opacity="1" fill-rule="nonzero"/><g clip-path="url(#4d8990db30)"><path fill="#5e6175" d="M 253.265625 260.472656 L 242.140625 260.472656 L 242.140625 225.222656 L 253.265625 236.332031 Z M 244.167969 258.445312 L 251.238281 258.445312 L 251.238281 237.160156 L 244.167969 230.097656 Z M 244.167969 258.445312 " fill-opacity="1" fill-rule="nonzero"/></g><path fill="#e1830e" d="M 162.035156 183.292969 C 164.820312 180.761719 163.90625 181.628906 166.089844 179.457031 C 177.597656 190.945312 194.746094 189.972656 204.949219 179.792969 L 208.898438 183.738281 C 196.472656 196.121094 175.660156 197.066406 162.035156 183.292969 Z M 162.035156 183.292969 " fill-opacity="1" fill-rule="nonzero"/><path fill="#e1830e" d="M 170.023438 175.660156 C 172.792969 173.113281 171.886719 173.972656 174.078125 171.8125 C 174.449219 172.191406 174.84375 172.554688 175.25 172.898438 C 175.660156 173.242188 176.085938 173.566406 176.527344 173.867188 C 176.96875 174.167969 177.421875 174.445312 177.890625 174.703125 C 178.359375 174.960938 178.839844 175.191406 179.332031 175.402344 C 179.824219 175.609375 180.324219 175.792969 180.832031 175.953125 C 181.34375 176.113281 181.859375 176.246094 182.382812 176.355469 C 182.90625 176.464844 183.433594 176.546875 183.964844 176.601562 C 184.496094 176.660156 185.03125 176.6875 185.5625 176.691406 C 186.097656 176.695312 186.632812 176.671875 187.164062 176.625 C 187.695312 176.574219 188.222656 176.5 188.75 176.398438 C 189.273438 176.296875 189.792969 176.167969 190.304688 176.015625 C 190.816406 175.863281 191.320312 175.6875 191.8125 175.484375 C 192.308594 175.28125 192.792969 175.054688 193.261719 174.804688 C 193.734375 174.554688 194.195312 174.28125 194.636719 173.984375 C 195.082031 173.691406 195.511719 173.375 195.925781 173.035156 C 196.339844 172.699219 196.734375 172.339844 197.113281 171.964844 L 201.0625 175.90625 C 200.554688 176.414062 200.019531 176.894531 199.464844 177.351562 C 198.90625 177.808594 198.328125 178.234375 197.726562 178.632812 C 197.128906 179.03125 196.507812 179.398438 195.871094 179.738281 C 195.238281 180.074219 194.585938 180.378906 193.917969 180.652344 C 193.25 180.921875 192.574219 181.164062 191.882812 181.367188 C 191.191406 181.574219 190.492188 181.746094 189.785156 181.878906 C 189.078125 182.015625 188.367188 182.117188 187.648438 182.183594 C 186.929688 182.25 186.210938 182.277344 185.492188 182.273438 C 184.769531 182.265625 184.054688 182.226562 183.335938 182.148438 C 182.621094 182.070312 181.910156 181.960938 181.203125 181.8125 C 180.5 181.664062 179.804688 181.484375 179.117188 181.265625 C 178.429688 181.050781 177.753906 180.800781 177.09375 180.519531 C 176.429688 180.234375 175.785156 179.917969 175.152344 179.570312 C 174.519531 179.226562 173.910156 178.847656 173.316406 178.4375 C 172.722656 178.03125 172.152344 177.59375 171.601562 177.128906 C 171.050781 176.664062 170.523438 176.175781 170.023438 175.660156 Z M 170.023438 175.660156 " fill-opacity="1" fill-rule="nonzero"/><path fill="#e1830e" d="M 179.699219 139.039062 C 179.699219 139.324219 179.667969 139.605469 179.613281 139.882812 C 179.558594 140.160156 179.476562 140.433594 179.367188 140.695312 C 179.257812 140.957031 179.125 141.207031 178.96875 141.445312 C 178.808594 141.679688 178.628906 141.898438 178.425781 142.101562 C 178.226562 142.300781 178.007812 142.480469 177.769531 142.636719 C 177.535156 142.796875 177.285156 142.929688 177.019531 143.039062 C 176.757812 143.148438 176.488281 143.230469 176.207031 143.285156 C 175.929688 143.339844 175.648438 143.367188 175.363281 143.367188 C 175.078125 143.367188 174.796875 143.339844 174.515625 143.285156 C 174.238281 143.230469 173.964844 143.148438 173.703125 143.039062 C 173.441406 142.929688 173.191406 142.796875 172.953125 142.636719 C 172.714844 142.480469 172.496094 142.300781 172.296875 142.101562 C 172.09375 141.898438 171.914062 141.679688 171.757812 141.445312 C 171.597656 141.207031 171.464844 140.957031 171.355469 140.695312 C 171.246094 140.433594 171.164062 140.160156 171.109375 139.882812 C 171.054688 139.605469 171.027344 139.324219 171.027344 139.039062 C 171.027344 138.753906 171.054688 138.472656 171.109375 138.195312 C 171.164062 137.914062 171.246094 137.644531 171.355469 137.382812 C 171.464844 137.117188 171.597656 136.871094 171.757812 136.632812 C 171.914062 136.394531 172.09375 136.179688 172.296875 135.976562 C 172.496094 135.777344 172.714844 135.597656 172.953125 135.4375 C 173.191406 135.28125 173.441406 135.148438 173.703125 135.039062 C 173.964844 134.929688 174.238281 134.847656 174.515625 134.792969 C 174.796875 134.734375 175.078125 134.707031 175.363281 134.707031 C 175.648438 134.707031 175.929688 134.734375 176.207031 134.792969 C 176.488281 134.847656 176.757812 134.929688 177.019531 135.039062 C 177.285156 135.148438 177.535156 135.28125 177.769531 135.4375 C 178.007812 135.597656 178.226562 135.777344 178.425781 135.976562 C 178.628906 136.179688 178.808594 136.394531 178.96875 136.632812 C 179.125 136.871094 179.257812 137.117188 179.367188 137.382812 C 179.476562 137.644531 179.558594 137.914062 179.613281 138.195312 C 179.667969 138.472656 179.699219 138.753906 179.699219 139.039062 Z M 179.699219 139.039062 " fill-opacity="1" fill-rule="nonzero"/><path fill="#a9afc4" d="M 199.113281 139.039062 C 199.113281 139.324219 199.085938 139.605469 199.03125 139.882812 C 198.976562 140.160156 198.894531 140.433594 198.785156 140.695312 C 198.675781 140.957031 198.542969 141.207031 198.382812 141.445312 C 198.226562 141.679688 198.046875 141.898438 197.84375 142.101562 C 197.644531 142.300781 197.425781 142.480469 197.1875 142.636719 C 196.949219 142.796875 196.699219 142.929688 196.4375 143.039062 C 196.175781 143.148438 195.902344 143.230469 195.625 143.285156 C 195.34375 143.339844 195.0625 143.367188 194.777344 143.367188 C 194.492188 143.367188 194.210938 143.339844 193.933594 143.285156 C 193.652344 143.230469 193.382812 143.148438 193.121094 143.039062 C 192.855469 142.929688 192.605469 142.796875 192.371094 142.636719 C 192.132812 142.480469 191.914062 142.300781 191.714844 142.101562 C 191.511719 141.898438 191.332031 141.679688 191.175781 141.445312 C 191.015625 141.207031 190.882812 140.957031 190.773438 140.695312 C 190.664062 140.433594 190.582031 140.160156 190.527344 139.882812 C 190.472656 139.605469 190.441406 139.324219 190.441406 139.039062 C 190.441406 138.753906 190.472656 138.472656 190.527344 138.195312 C 190.582031 137.914062 190.664062 137.644531 190.773438 137.382812 C 190.882812 137.117188 191.015625 136.871094 191.175781 136.632812 C 191.332031 136.394531 191.511719 136.179688 191.714844 135.976562 C 191.914062 135.777344 192.132812 135.597656 192.371094 135.4375 C 192.605469 135.28125 192.855469 135.148438 193.121094 135.039062 C 193.382812 134.929688 193.652344 134.847656 193.933594 134.792969 C 194.210938 134.734375 194.492188 134.707031 194.777344 134.707031 C 195.0625 134.707031 195.34375 134.734375 195.625 134.792969 C 195.902344 134.847656 196.175781 134.929688 196.4375 135.039062 C 196.699219 135.148438 196.949219 135.28125 197.1875 135.4375 C 197.425781 135.597656 197.644531 135.777344 197.84375 135.976562 C 198.046875 136.179688 198.226562 136.394531 198.382812 136.632812 C 198.542969 136.871094 198.675781 137.117188 198.785156 137.382812 C 198.894531 137.644531 198.976562 137.914062 199.03125 138.195312 C 199.085938 138.472656 199.113281 138.753906 199.113281 139.039062 Z M 199.113281 139.039062 " fill-opacity="1" fill-rule="nonzero"/><path fill="#5e6175" d="M 118.78125 121.085938 L 120.214844 119.652344 L 125.300781 124.734375 L 123.867188 126.164062 Z M 118.78125 121.085938 " fill-opacity="1" fill-rule="nonzero"/><path fill="#5e6175" d="M 113.617188 130.363281 L 120.8125 130.363281 L 120.8125 132.390625 L 113.617188 132.390625 Z M 113.617188 130.363281 " fill-opacity="1" fill-rule="nonzero"/><g clip-path="url(#9975b8a8b4)"><path fill="#5e6175" d="M 129.066406 114.308594 L 131.09375 114.308594 L 131.09375 121.492188 L 129.066406 121.492188 Z M 129.066406 114.308594 " fill-opacity="1" fill-rule="nonzero"/></g><path fill="#a9afc4" d="M 255.8125 230.957031 L 254.375 229.527344 L 255.8125 228.09375 L 257.246094 229.527344 Z M 251.964844 227.042969 C 251.484375 226.492188 251.054688 225.902344 250.667969 225.28125 L 252.394531 224.207031 C 252.722656 224.738281 253.089844 225.238281 253.496094 225.710938 Z M 249.1875 221.980469 C 248.980469 221.28125 248.828125 220.570312 248.734375 219.84375 L 250.742188 219.582031 C 250.824219 220.199219 250.953125 220.808594 251.132812 221.402344 Z M 250.644531 216.34375 L 248.617188 216.34375 L 248.617188 214.316406 L 250.644531 214.316406 Z M 250.644531 210.941406 L 248.617188 210.941406 L 248.617188 208.917969 L 250.644531 208.917969 Z M 250.644531 205.542969 L 248.617188 205.542969 L 248.617188 203.519531 L 250.644531 203.519531 Z M 250.644531 200.144531 L 248.617188 200.144531 L 248.617188 198.117188 L 250.644531 198.117188 Z M 250.644531 200.144531 " fill-opacity="1" fill-rule="nonzero"/><g clip-path="url(#841e7f7813)"><path fill="#5e6175" d="M 258.203125 141.863281 C 257.925781 141.863281 257.648438 141.835938 257.378906 141.777344 C 257.105469 141.722656 256.84375 141.640625 256.589844 141.527344 C 256.335938 141.417969 256.097656 141.28125 255.871094 141.121094 C 255.644531 140.960938 255.4375 140.777344 255.25 140.574219 C 255.0625 140.367188 254.898438 140.148438 254.753906 139.910156 C 254.613281 139.671875 254.496094 139.421875 254.40625 139.160156 C 254.316406 138.898438 254.257812 138.628906 254.222656 138.355469 C 254.1875 138.078125 254.183594 137.804688 254.207031 137.527344 C 254.230469 137.25 254.28125 136.980469 254.363281 136.714844 C 254.441406 136.449219 254.550781 136.195312 254.683594 135.953125 C 254.816406 135.710938 254.972656 135.484375 255.152344 135.273438 C 255.332031 135.0625 255.53125 134.871094 255.75 134.703125 C 255.972656 134.53125 256.207031 134.386719 256.457031 134.269531 C 256.707031 134.148438 256.964844 134.054688 257.234375 133.988281 C 257.503906 133.921875 257.777344 133.882812 258.054688 133.875 C 258.332031 133.863281 258.605469 133.882812 258.878906 133.929688 C 259.152344 133.976562 259.417969 134.054688 259.675781 134.15625 C 259.933594 134.257812 260.179688 134.386719 260.410156 134.539062 C 260.640625 134.695312 260.851562 134.871094 261.046875 135.066406 C 261.242188 135.265625 261.414062 135.480469 261.5625 135.714844 C 261.714844 135.945312 261.835938 136.191406 261.933594 136.453125 C 262.035156 136.710938 262.105469 136.976562 262.148438 137.25 C 262.191406 137.523438 262.203125 137.800781 262.1875 138.078125 C 262.175781 138.351562 262.132812 138.625 262.0625 138.894531 C 261.949219 139.320312 261.769531 139.714844 261.523438 140.082031 C 261.28125 140.445312 260.984375 140.765625 260.636719 141.03125 C 260.289062 141.300781 259.90625 141.507812 259.488281 141.648438 C 259.070312 141.789062 258.640625 141.863281 258.203125 141.863281 Z M 258.203125 135.890625 C 258.050781 135.890625 257.898438 135.90625 257.753906 135.941406 C 257.605469 135.976562 257.464844 136.027344 257.328125 136.09375 C 257.191406 136.160156 257.066406 136.242188 256.949219 136.339844 C 256.832031 136.433594 256.726562 136.542969 256.632812 136.664062 C 256.542969 136.785156 256.464844 136.914062 256.402344 137.050781 C 256.339844 137.1875 256.292969 137.332031 256.265625 137.480469 C 256.234375 137.628906 256.222656 137.78125 256.226562 137.929688 C 256.234375 138.082031 256.253906 138.230469 256.292969 138.378906 C 256.332031 138.523438 256.390625 138.664062 256.460938 138.796875 C 256.53125 138.929688 256.617188 139.054688 256.71875 139.167969 C 256.820312 139.28125 256.929688 139.382812 257.054688 139.46875 C 257.179688 139.558594 257.308594 139.632812 257.449219 139.6875 C 257.589844 139.746094 257.734375 139.789062 257.882812 139.8125 C 258.035156 139.835938 258.183594 139.84375 258.335938 139.832031 C 258.488281 139.824219 258.636719 139.796875 258.78125 139.753906 C 258.925781 139.707031 259.0625 139.648438 259.195312 139.570312 C 259.574219 139.34375 259.847656 139.023438 260.015625 138.613281 C 260.179688 138.203125 260.203125 137.78125 260.085938 137.355469 C 259.96875 136.929688 259.734375 136.578125 259.382812 136.308594 C 259.03125 136.039062 258.632812 135.90625 258.1875 135.902344 Z M 258.203125 135.890625 " fill-opacity="1" fill-rule="nonzero"/></g><path fill="#5e6175" d="M 241.027344 118.40625 C 241.09375 118.160156 241.1875 117.925781 241.3125 117.707031 C 241.4375 117.484375 241.585938 117.28125 241.757812 117.09375 C 241.929688 116.910156 242.125 116.75 242.335938 116.613281 C 242.550781 116.472656 242.777344 116.363281 243.019531 116.285156 C 243.257812 116.203125 243.503906 116.152344 243.757812 116.128906 C 244.011719 116.109375 244.261719 116.117188 244.511719 116.160156 C 244.761719 116.199219 245.003906 116.273438 245.238281 116.371094 C 245.46875 116.472656 245.6875 116.601562 245.890625 116.753906 C 246.089844 116.90625 246.269531 117.085938 246.429688 117.28125 C 246.585938 117.480469 246.71875 117.695312 246.824219 117.925781 C 246.929688 118.15625 247.003906 118.398438 247.050781 118.644531 C 247.09375 118.894531 247.109375 119.144531 247.09375 119.398438 C 247.078125 119.652344 247.03125 119.898438 246.953125 120.140625 C 246.878906 120.382812 246.773438 120.609375 246.640625 120.828125 C 246.503906 121.042969 246.347656 121.238281 246.164062 121.414062 C 245.984375 121.589844 245.78125 121.742188 245.5625 121.871094 C 245.023438 122.1875 244.441406 122.324219 243.816406 122.285156 C 243.191406 122.246094 242.628906 122.039062 242.132812 121.65625 C 241.632812 121.277344 241.285156 120.792969 241.085938 120.199219 C 240.882812 119.605469 240.863281 119.007812 241.027344 118.40625 Z M 244.011719 118.140625 C 243.847656 118.140625 243.691406 118.175781 243.542969 118.25 C 243.394531 118.324219 243.269531 118.425781 243.167969 118.554688 C 243.066406 118.6875 243 118.832031 242.96875 118.996094 C 242.9375 119.15625 242.941406 119.316406 242.984375 119.476562 C 243.03125 119.636719 243.105469 119.777344 243.214844 119.902344 C 243.324219 120.027344 243.457031 120.121094 243.609375 120.183594 C 243.761719 120.246094 243.921875 120.269531 244.085938 120.257812 C 244.25 120.246094 244.402344 120.199219 244.546875 120.117188 C 244.804688 119.972656 244.96875 119.761719 245.039062 119.476562 C 245.082031 119.316406 245.085938 119.15625 245.054688 118.992188 C 245.023438 118.832031 244.957031 118.6875 244.855469 118.554688 C 244.753906 118.425781 244.628906 118.324219 244.484375 118.25 C 244.335938 118.175781 244.179688 118.140625 244.011719 118.140625 Z M 244.011719 118.140625 " fill-opacity="1" fill-rule="nonzero"/><g clip-path="url(#b024c4ea7b)"><path fill="#5e6175" d="M 112.5 258.445312 L 260.246094 258.445312 L 260.246094 260.472656 L 112.5 260.472656 Z M 112.5 258.445312 " fill-opacity="1" fill-rule="nonzero"/></g><path fill="#f5f5f5" d="M 127.761719 149.082031 L 127.761719 259.527344 L 136.082031 259.527344 L 136.082031 156.792969 L 235.195312 156.792969 L 235.195312 259.527344 L 243.15625 259.527344 L 243.15625 149.082031 Z M 127.761719 149.082031 " fill-opacity="1" fill-rule="nonzero"/><g clip-path="url(#b45e1d6c38)"><path fill="#5e6175" d="M 244.167969 260.539062 L 234.183594 260.539062 L 234.183594 157.804688 L 137.097656 157.804688 L 137.097656 260.539062 L 126.75 260.539062 L 126.75 148.070312 L 244.167969 148.070312 Z M 236.210938 258.511719 L 242.140625 258.511719 L 242.140625 150.09375 L 128.777344 150.09375 L 128.777344 258.511719 L 135.070312 258.511719 L 135.070312 155.78125 L 236.210938 155.78125 Z M 236.210938 258.511719 " fill-opacity="1" fill-rule="nonzero"/></g><path fill="#dee1ec" d="M 234.214844 128.996094 L 136.703125 128.996094 C 136.117188 128.996094 135.535156 129.050781 134.960938 129.167969 C 134.382812 129.28125 133.824219 129.449219 133.28125 129.675781 C 132.742188 129.898438 132.226562 130.175781 131.738281 130.5 C 131.25 130.824219 130.796875 131.195312 130.382812 131.609375 C 129.96875 132.023438 129.597656 132.476562 129.269531 132.964844 C 128.945312 133.449219 128.667969 133.964844 128.445312 134.507812 C 128.21875 135.050781 128.050781 135.609375 127.933594 136.183594 C 127.820312 136.757812 127.761719 137.339844 127.761719 137.925781 L 127.761719 149.082031 L 243.15625 149.082031 L 243.15625 137.925781 C 243.15625 137.339844 243.097656 136.757812 242.984375 136.183594 C 242.867188 135.609375 242.699219 135.050781 242.472656 134.507812 C 242.25 133.964844 241.972656 133.449219 241.648438 132.964844 C 241.320312 132.476562 240.949219 132.023438 240.535156 131.609375 C 240.121094 131.195312 239.667969 130.824219 239.179688 130.5 C 238.691406 130.175781 238.175781 129.898438 237.636719 129.675781 C 237.09375 129.449219 236.535156 129.28125 235.957031 129.167969 C 235.382812 129.050781 234.800781 128.996094 234.214844 128.996094 Z M 234.214844 128.996094 " fill-opacity="1" fill-rule="nonzero"/><path fill="#5e6175" d="M 244.167969 150.09375 L 126.75 150.09375 L 126.75 137.925781 C 126.75 137.273438 126.816406 136.625 126.941406 135.984375 C 127.070312 135.347656 127.261719 134.726562 127.511719 134.121094 C 127.761719 133.519531 128.070312 132.945312 128.433594 132.40625 C 128.792969 131.863281 129.207031 131.359375 129.667969 130.898438 C 130.132812 130.4375 130.632812 130.023438 131.175781 129.664062 C 131.71875 129.300781 132.292969 128.992188 132.898438 128.742188 C 133.5 128.492188 134.121094 128.304688 134.761719 128.175781 C 135.40625 128.046875 136.050781 127.984375 136.703125 127.984375 L 234.214844 127.984375 C 234.867188 127.984375 235.511719 128.046875 236.15625 128.175781 C 236.796875 128.304688 237.417969 128.492188 238.019531 128.742188 C 238.625 128.992188 239.199219 129.300781 239.742188 129.664062 C 240.285156 130.023438 240.785156 130.4375 241.25 130.898438 C 241.710938 131.359375 242.125 131.863281 242.484375 132.40625 C 242.847656 132.945312 243.15625 133.519531 243.40625 134.121094 C 243.65625 134.726562 243.847656 135.347656 243.976562 135.984375 C 244.101562 136.625 244.167969 137.273438 244.167969 137.925781 Z M 128.777344 148.070312 L 242.140625 148.070312 L 242.140625 137.925781 C 242.140625 137.40625 242.089844 136.890625 241.988281 136.378906 C 241.882812 135.871094 241.734375 135.375 241.535156 134.894531 C 241.335938 134.417969 241.089844 133.960938 240.800781 133.527344 C 240.511719 133.097656 240.183594 132.695312 239.816406 132.328125 C 239.449219 131.960938 239.046875 131.632812 238.613281 131.34375 C 238.183594 131.054688 237.726562 130.8125 237.246094 130.613281 C 236.765625 130.414062 236.269531 130.261719 235.757812 130.160156 C 235.25 130.058594 234.734375 130.007812 234.214844 130.007812 L 136.703125 130.007812 C 136.183594 130.007812 135.667969 130.058594 135.160156 130.160156 C 134.648438 130.261719 134.152344 130.414062 133.671875 130.613281 C 133.191406 130.8125 132.734375 131.054688 132.300781 131.34375 C 131.871094 131.632812 131.46875 131.960938 131.101562 132.328125 C 130.734375 132.695312 130.40625 133.09375 130.117188 133.527344 C 129.828125 133.960938 129.582031 134.414062 129.382812 134.894531 C 129.183594 135.375 129.03125 135.871094 128.929688 136.378906 C 128.828125 136.890625 128.777344 137.40625 128.777344 137.925781 Z M 128.777344 148.070312 " fill-opacity="1" fill-rule="nonzero"/><path fill="#a9afc4" d="M 127.761719 227.652344 L 118.664062 236.742188 L 118.664062 259.457031 L 127.761719 259.457031 Z M 127.761719 227.652344 " fill-opacity="1" fill-rule="nonzero"/><g clip-path="url(#0d9a8b5454)"><path fill="#5e6175" d="M 128.777344 260.472656 L 117.648438 260.472656 L 117.648438 236.320312 L 128.777344 225.222656 Z M 119.675781 258.445312 L 126.75 258.445312 L 126.75 230.097656 L 119.675781 237.160156 Z M 119.675781 258.445312 " fill-opacity="1" fill-rule="nonzero"/></g><path fill="#a9afc4" d="M 243.15625 227.652344 L 252.25 236.742188 L 252.25 259.457031 L 243.15625 259.457031 Z M 243.15625 227.652344 " fill-opacity="1" fill-rule="nonzero"/><g clip-path="url(#4579c9542d)"><path fill="#5e6175" d="M 253.265625 260.472656 L 242.140625 260.472656 L 242.140625 225.222656 L 253.265625 236.332031 Z M 244.167969 258.445312 L 251.238281 258.445312 L 251.238281 237.160156 L 244.167969 230.097656 Z M 244.167969 258.445312 " fill-opacity="1" fill-rule="nonzero"/></g><path fill="#e1830e" d="M 162.035156 183.292969 C 164.820312 180.761719 163.90625 181.628906 166.089844 179.457031 C 177.597656 190.945312 194.746094 189.972656 204.949219 179.792969 L 208.898438 183.738281 C 196.472656 196.121094 175.660156 197.066406 162.035156 183.292969 Z M 162.035156 183.292969 " fill-opacity="1" fill-rule="nonzero"/><path fill="#e1830e" d="M 170.023438 175.660156 C 172.792969 173.113281 171.886719 173.972656 174.078125 171.8125 C 174.449219 172.191406 174.84375 172.554688 175.25 172.898438 C 175.660156 173.242188 176.085938 173.566406 176.527344 173.867188 C 176.96875 174.167969 177.421875 174.445312 177.890625 174.703125 C 178.359375 174.960938 178.839844 175.191406 179.332031 175.402344 C 179.824219 175.609375 180.324219 175.792969 180.832031 175.953125 C 181.34375 176.113281 181.859375 176.246094 182.382812 176.355469 C 182.90625 176.464844 183.433594 176.546875 183.964844 176.601562 C 184.496094 176.660156 185.03125 176.6875 185.5625 176.691406 C 186.097656 176.695312 186.632812 176.671875 187.164062 176.625 C 187.695312 176.574219 188.222656 176.5 188.75 176.398438 C 189.273438 176.296875 189.792969 176.167969 190.304688 176.015625 C 190.816406 175.863281 191.320312 175.6875 191.8125 175.484375 C 192.308594 175.28125 192.792969 175.054688 193.261719 174.804688 C 193.734375 174.554688 194.195312 174.28125 194.636719 173.984375 C 195.082031 173.691406 195.511719 173.375 195.925781 173.035156 C 196.339844 172.699219 196.734375 172.339844 197.113281 171.964844 L 201.0625 175.90625 C 200.554688 176.414062 200.019531 176.894531 199.464844 177.351562 C 198.90625 177.808594 198.328125 178.234375 197.726562 178.632812 C 197.128906 179.03125 196.507812 179.398438 195.871094 179.738281 C 195.238281 180.074219 194.585938 180.378906 193.917969 180.652344 C 193.25 180.921875 192.574219 181.164062 191.882812 181.367188 C 191.191406 181.574219 190.492188 181.746094 189.785156 181.878906 C 189.078125 182.015625 188.367188 182.117188 187.648438 182.183594 C 186.929688 182.25 186.210938 182.277344 185.492188 182.273438 C 184.769531 182.265625 184.054688 182.226562 183.335938 182.148438 C 182.621094 182.070312 181.910156 181.960938 181.203125 181.8125 C 180.5 181.664062 179.804688 181.484375 179.117188 181.265625 C 178.429688 181.050781 177.753906 180.800781 177.09375 180.519531 C 176.429688 180.234375 175.785156 179.917969 175.152344 179.570312 C 174.519531 179.226562 173.910156 178.847656 173.316406 178.4375 C 172.722656 178.03125 172.152344 177.59375 171.601562 177.128906 C 171.050781 176.664062 170.523438 176.175781 170.023438 175.660156 Z M 170.023438 175.660156 " fill-opacity="1" fill-rule="nonzero"/><path fill="#e1830e" d="M 179.699219 139.039062 C 179.699219 139.324219 179.667969 139.605469 179.613281 139.882812 C 179.558594 140.160156 179.476562 140.433594 179.367188 140.695312 C 179.257812 140.957031 179.125 141.207031 178.96875 141.445312 C 178.808594 141.679688 178.628906 141.898438 178.425781 142.101562 C 178.226562 142.300781 178.007812 142.480469 177.769531 142.636719 C 177.535156 142.796875 177.285156 142.929688 177.019531 143.039062 C 176.757812 143.148438 176.488281 143.230469 176.207031 143.285156 C 175.929688 143.339844 175.648438 143.367188 175.363281 143.367188 C 175.078125 143.367188 174.796875 143.339844 174.515625 143.285156 C 174.238281 143.230469 173.964844 143.148438 173.703125 143.039062 C 173.441406 142.929688 173.191406 142.796875 172.953125 142.636719 C 172.714844 142.480469 172.496094 142.300781 172.296875 142.101562 C 172.09375 141.898438 171.914062 141.679688 171.757812 141.445312 C 171.597656 141.207031 171.464844 140.957031 171.355469 140.695312 C 171.246094 140.433594 171.164062 140.160156 171.109375 139.882812 C 171.054688 139.605469 171.027344 139.324219 171.027344 139.039062 C 171.027344 138.753906 171.054688 138.472656 171.109375 138.195312 C 171.164062 137.914062 171.246094 137.644531 171.355469 137.382812 C 171.464844 137.117188 171.597656 136.871094 171.757812 136.632812 C 171.914062 136.394531 172.09375 136.179688 172.296875 135.976562 C 172.496094 135.777344 172.714844 135.597656 172.953125 135.4375 C 173.191406 135.28125 173.441406 135.148438 173.703125 135.039062 C 173.964844 134.929688 174.238281 134.847656 174.515625 134.792969 C 174.796875 134.734375 175.078125 134.707031 175.363281 134.707031 C 175.648438 134.707031 175.929688 134.734375 176.207031 134.792969 C 176.488281 134.847656 176.757812 134.929688 177.019531 135.039062 C 177.285156 135.148438 177.535156 135.28125 177.769531 135.4375 C 178.007812 135.597656 178.226562 135.777344 178.425781 135.976562 C 178.628906 136.179688 178.808594 136.394531 178.96875 136.632812 C 179.125 136.871094 179.257812 137.117188 179.367188 137.382812 C 179.476562 137.644531 179.558594 137.914062 179.613281 138.195312 C 179.667969 138.472656 179.699219 138.753906 179.699219 139.039062 Z M 179.699219 139.039062 " fill-opacity="1" fill-rule="nonzero"/><path fill="#a9afc4" d="M 199.113281 139.039062 C 199.113281 139.324219 199.085938 139.605469 199.03125 139.882812 C 198.976562 140.160156 198.894531 140.433594 198.785156 140.695312 C 198.675781 140.957031 198.542969 141.207031 198.382812 141.445312 C 198.226562 141.679688 198.046875 141.898438 197.84375 142.101562 C 197.644531 142.300781 197.425781 142.480469 197.1875 142.636719 C 196.949219 142.796875 196.699219 142.929688 196.4375 143.039062 C 196.175781 143.148438 195.902344 143.230469 195.625 143.285156 C 195.34375 143.339844 195.0625 143.367188 194.777344 143.367188 C 194.492188 143.367188 194.210938 143.339844 193.933594 143.285156 C 193.652344 143.230469 193.382812 143.148438 193.121094 143.039062 C 192.855469 142.929688 192.605469 142.796875 192.371094 142.636719 C 192.132812 142.480469 191.914062 142.300781 191.714844 142.101562 C 191.511719 141.898438 191.332031 141.679688 191.175781 141.445312 C 191.015625 141.207031 190.882812 140.957031 190.773438 140.695312 C 190.664062 140.433594 190.582031 140.160156 190.527344 139.882812 C 190.472656 139.605469 190.441406 139.324219 190.441406 139.039062 C 190.441406 138.753906 190.472656 138.472656 190.527344 138.195312 C 190.582031 137.914062 190.664062 137.644531 190.773438 137.382812 C 190.882812 137.117188 191.015625 136.871094 191.175781 136.632812 C 191.332031 136.394531 191.511719 136.179688 191.714844 135.976562 C 191.914062 135.777344 192.132812 135.597656 192.371094 135.4375 C 192.605469 135.28125 192.855469 135.148438 193.121094 135.039062 C 193.382812 134.929688 193.652344 134.847656 193.933594 134.792969 C 194.210938 134.734375 194.492188 134.707031 194.777344 134.707031 C 195.0625 134.707031 195.34375 134.734375 195.625 134.792969 C 195.902344 134.847656 196.175781 134.929688 196.4375 135.039062 C 196.699219 135.148438 196.949219 135.28125 197.1875 135.4375 C 197.425781 135.597656 197.644531 135.777344 197.84375 135.976562 C 198.046875 136.179688 198.226562 136.394531 198.382812 136.632812 C 198.542969 136.871094 198.675781 137.117188 198.785156 137.382812 C 198.894531 137.644531 198.976562 137.914062 199.03125 138.195312 C 199.085938 138.472656 199.113281 138.753906 199.113281 139.039062 Z M 199.113281 139.039062 " fill-opacity="1" fill-rule="nonzero"/><path fill="#5e6175" d="M 118.78125 121.085938 L 120.214844 119.652344 L 125.300781 124.734375 L 123.867188 126.164062 Z M 118.78125 121.085938 " fill-opacity="1" fill-rule="nonzero"/><path fill="#5e6175" d="M 113.617188 130.363281 L 120.8125 130.363281 L 120.8125 132.390625 L 113.617188 132.390625 Z M 113.617188 130.363281 " fill-opacity="1" fill-rule="nonzero"/><g clip-path="url(#84c6f67420)"><path fill="#5e6175" d="M 129.066406 114.308594 L 131.09375 114.308594 L 131.09375 121.492188 L 129.066406 121.492188 Z M 129.066406 114.308594 " fill-opacity="1" fill-rule="nonzero"/></g><path fill="#a9afc4" d="M 255.8125 230.957031 L 254.375 229.527344 L 255.8125 228.09375 L 257.246094 229.527344 Z M 251.964844 227.042969 C 251.484375 226.492188 251.054688 225.902344 250.667969 225.28125 L 252.394531 224.207031 C 252.722656 224.738281 253.089844 225.238281 253.496094 225.710938 Z M 249.1875 221.980469 C 248.980469 221.28125 248.828125 220.570312 248.734375 219.84375 L 250.742188 219.582031 C 250.824219 220.199219 250.953125 220.808594 251.132812 221.402344 Z M 250.644531 216.34375 L 248.617188 216.34375 L 248.617188 214.316406 L 250.644531 214.316406 Z M 250.644531 210.941406 L 248.617188 210.941406 L 248.617188 208.917969 L 250.644531 208.917969 Z M 250.644531 205.542969 L 248.617188 205.542969 L 248.617188 203.519531 L 250.644531 203.519531 Z M 250.644531 200.144531 L 248.617188 200.144531 L 248.617188 198.117188 L 250.644531 198.117188 Z M 250.644531 200.144531 " fill-opacity="1" fill-rule="nonzero"/><g clip-path="url(#7d8e321aae)"><path fill="#5e6175" d="M 258.203125 141.863281 C 257.925781 141.863281 257.648438 141.835938 257.378906 141.777344 C 257.105469 141.722656 256.84375 141.640625 256.589844 141.527344 C 256.335938 141.417969 256.097656 141.28125 255.871094 141.121094 C 255.644531 140.960938 255.4375 140.777344 255.25 140.574219 C 255.0625 140.367188 254.898438 140.148438 254.753906 139.910156 C 254.613281 139.671875 254.496094 139.421875 254.40625 139.160156 C 254.316406 138.898438 254.257812 138.628906 254.222656 138.355469 C 254.1875 138.078125 254.183594 137.804688 254.207031 137.527344 C 254.230469 137.25 254.28125 136.980469 254.363281 136.714844 C 254.441406 136.449219 254.550781 136.195312 254.683594 135.953125 C 254.816406 135.710938 254.972656 135.484375 255.152344 135.273438 C 255.332031 135.0625 255.53125 134.871094 255.75 134.703125 C 255.972656 134.53125 256.207031 134.386719 256.457031 134.269531 C 256.707031 134.148438 256.964844 134.054688 257.234375 133.988281 C 257.503906 133.921875 257.777344 133.882812 258.054688 133.875 C 258.332031 133.863281 258.605469 133.882812 258.878906 133.929688 C 259.152344 133.976562 259.417969 134.054688 259.675781 134.15625 C 259.933594 134.257812 260.179688 134.386719 260.410156 134.539062 C 260.640625 134.695312 260.851562 134.871094 261.046875 135.066406 C 261.242188 135.265625 261.414062 135.480469 261.5625 135.714844 C 261.714844 135.945312 261.835938 136.191406 261.933594 136.453125 C 262.035156 136.710938 262.105469 136.976562 262.148438 137.25 C 262.191406 137.523438 262.203125 137.800781 262.1875 138.078125 C 262.175781 138.351562 262.132812 138.625 262.0625 138.894531 C 261.949219 139.320312 261.769531 139.714844 261.523438 140.082031 C 261.28125 140.445312 260.984375 140.765625 260.636719 141.03125 C 260.289062 141.300781 259.90625 141.507812 259.488281 141.648438 C 259.070312 141.789062 258.640625 141.863281 258.203125 141.863281 Z M 258.203125 135.890625 C 258.050781 135.890625 257.898438 135.90625 257.753906 135.941406 C 257.605469 135.976562 257.464844 136.027344 257.328125 136.09375 C 257.191406 136.160156 257.066406 136.242188 256.949219 136.339844 C 256.832031 136.433594 256.726562 136.542969 256.632812 136.664062 C 256.542969 136.785156 256.464844 136.914062 256.402344 137.050781 C 256.339844 137.1875 256.292969 137.332031 256.265625 137.480469 C 256.234375 137.628906 256.222656 137.78125 256.226562 137.929688 C 256.234375 138.082031 256.253906 138.230469 256.292969 138.378906 C 256.332031 138.523438 256.390625 138.664062 256.460938 138.796875 C 256.53125 138.929688 256.617188 139.054688 256.71875 139.167969 C 256.820312 139.28125 256.929688 139.382812 257.054688 139.46875 C 257.179688 139.558594 257.308594 139.632812 257.449219 139.6875 C 257.589844 139.746094 257.734375 139.789062 257.882812 139.8125 C 258.035156 139.835938 258.183594 139.84375 258.335938 139.832031 C 258.488281 139.824219 258.636719 139.796875 258.78125 139.753906 C 258.925781 139.707031 259.0625 139.648438 259.195312 139.570312 C 259.574219 139.34375 259.847656 139.023438 260.015625 138.613281 C 260.179688 138.203125 260.203125 137.78125 260.085938 137.355469 C 259.96875 136.929688 259.734375 136.578125 259.382812 136.308594 C 259.03125 136.039062 258.632812 135.90625 258.1875 135.902344 Z M 258.203125 135.890625 " fill-opacity="1" fill-rule="nonzero"/></g><path fill="#5e6175" d="M 241.027344 118.40625 C 241.09375 118.160156 241.1875 117.925781 241.3125 117.707031 C 241.4375 117.484375 241.585938 117.28125 241.757812 117.09375 C 241.929688 116.910156 242.125 116.75 242.335938 116.613281 C 242.550781 116.472656 242.777344 116.363281 243.019531 116.285156 C 243.257812 116.203125 243.503906 116.152344 243.757812 116.128906 C 244.011719 116.109375 244.261719 116.117188 244.511719 116.160156 C 244.761719 116.199219 245.003906 116.273438 245.238281 116.371094 C 245.46875 116.472656 245.6875 116.601562 245.890625 116.753906 C 246.089844 116.90625 246.269531 117.085938 246.429688 117.28125 C 246.585938 117.480469 246.71875 117.695312 246.824219 117.925781 C 246.929688 118.15625 247.003906 118.398438 247.050781 118.644531 C 247.09375 118.894531 247.109375 119.144531 247.09375 119.398438 C 247.078125 119.652344 247.03125 119.898438 246.953125 120.140625 C 246.878906 120.382812 246.773438 120.609375 246.640625 120.828125 C 246.503906 121.042969 246.347656 121.238281 246.164062 121.414062 C 245.984375 121.589844 245.78125 121.742188 245.5625 121.871094 C 245.023438 122.1875 244.441406 122.324219 243.816406 122.285156 C 243.191406 122.246094 242.628906 122.039062 242.132812 121.65625 C 241.632812 121.277344 241.285156 120.792969 241.085938 120.199219 C 240.882812 119.605469 240.863281 119.007812 241.027344 118.40625 Z M 244.011719 118.140625 C 243.847656 118.140625 243.691406 118.175781 243.542969 118.25 C 243.394531 118.324219 243.269531 118.425781 243.167969 118.554688 C 243.066406 118.6875 243 118.832031 242.96875 118.996094 C 242.9375 119.15625 242.941406 119.316406 242.984375 119.476562 C 243.03125 119.636719 243.105469 119.777344 243.214844 119.902344 C 243.324219 120.027344 243.457031 120.121094 243.609375 120.183594 C 243.761719 120.246094 243.921875 120.269531 244.085938 120.257812 C 244.25 120.246094 244.402344 120.199219 244.546875 120.117188 C 244.804688 119.972656 244.96875 119.761719 245.039062 119.476562 C 245.082031 119.316406 245.085938 119.15625 245.054688 118.992188 C 245.023438 118.832031 244.957031 118.6875 244.855469 118.554688 C 244.753906 118.425781 244.628906 118.324219 244.484375 118.25 C 244.335938 118.175781 244.179688 118.140625 244.011719 118.140625 Z M 244.011719 118.140625 " fill-opacity="1" fill-rule="nonzero"/></svg>