<?xml version="1.0" standalone="no"?>
<!DOCTYPE svg PUBLIC "-//W3C//DTD SVG 20010904//EN"
 "http://www.w3.org/TR/2001/REC-SVG-20010904/DTD/svg10.dtd">
<svg version="1.0" xmlns="http://www.w3.org/2000/svg"
 width="1024.000000pt" height="1024.000000pt" viewBox="0 0 1024.000000 1024.000000"
 preserveAspectRatio="xMidYMid meet">

<g transform="translate(0.000000,1024.000000) scale(0.100000,-0.100000)"
fill="currentColor" stroke="none">
<path d="M2301 6721 c-12 -12 -21 -25 -21 -30 0 -5 63 -190 140 -412 77 -222
140 -404 140 -405 0 -1 -53 -4 -117 -6 -76 -2 -125 -8 -139 -17 -11 -8 -43
-45 -70 -84 -159 -229 -163 -237 -126 -270 16 -15 51 -17 285 -17 l267 0 0
-594 0 -594 -30 -7 c-16 -4 -41 -21 -56 -38 -24 -28 -26 -37 -22 -103 4 -83
23 -118 79 -147 30 -15 66 -17 333 -17 l300 1 13 -52 c36 -139 144 -256 281
-305 31 -11 -73 -13 -653 -14 -524 0 -694 -3 -703 -12 -18 -18 -14 -63 6 -81
17 -16 234 -17 2919 -17 2797 0 2900 1 2916 18 22 24 21 55 -1 75 -17 15 -73
17 -588 17 l-569 1 62 29 c71 32 161 112 197 174 14 23 33 70 43 103 l18 61
235 4 c218 4 239 6 295 28 81 31 154 105 184 185 42 110 32 184 -107 780 -67
286 -129 548 -138 582 -56 217 -207 379 -419 451 l-80 27 -1892 5 c-1242 3
-1895 8 -1901 15 -5 6 -126 150 -269 320 -144 171 -273 321 -288 335 l-27 25
-238 3 c-230 3 -240 2 -259 -17z m457 -94 c18 -10 427 -489 553 -648 l31 -39
1876 0 c2052 0 1946 3 2077 -58 86 -41 184 -135 229 -221 20 -38 33 -72 28
-75 -5 -3 -115 -4 -246 -3 l-238 2 -24 -28 c-14 -16 -24 -41 -24 -58 0 -32
124 -576 142 -622 21 -53 43 -57 322 -57 l254 0 27 -117 c15 -65 30 -124 32
-130 4 -10 -39 -13 -193 -13 -170 0 -200 -2 -216 -17 -22 -20 -23 -51 -1 -75
15 -16 35 -18 228 -18 l212 0 7 -52 c14 -117 1 -171 -52 -230 -66 -73 -85 -78
-348 -78 l-232 0 -6 43 c-9 57 -49 141 -93 195 -121 148 -352 195 -527 109
-121 -60 -210 -171 -237 -295 l-11 -52 -247 0 -247 0 4 734 5 734 -26 26 -26
26 -559 0 c-551 0 -560 0 -586 -21 l-26 -20 0 -740 0 -739 -239 0 -239 0 -7
41 c-18 107 -123 247 -223 298 -174 89 -381 59 -519 -76 -58 -56 -111 -155
-120 -223 l-6 -40 -302 0 c-337 0 -315 -5 -315 70 l0 39 50 7 c34 4 54 13 60
25 6 10 10 76 10 148 l0 131 179 0 c197 0 211 4 211 59 0 48 -10 51 -207 51
l-183 0 0 459 c0 437 -1 460 -19 482 l-19 24 -252 -2 -251 -2 57 82 c31 45 64
88 72 95 12 9 88 12 304 12 l288 0 16 25 c15 23 15 27 0 50 -16 25 -18 25
-154 25 l-138 0 -129 373 c-71 204 -130 378 -133 385 -6 17 313 17 346 -1z
m2417 -1832 l0 -705 -225 0 -225 0 0 705 -1 705 226 0 225 0 0 -705z m555 0
l0 -705 -225 0 -225 0 0 705 0 705 225 0 225 0 0 -705z m1913 432 c33 -138 61
-262 64 -274 l5 -23 -228 0 -229 0 -58 253 c-32 138 -60 262 -63 275 l-6 22
228 0 229 0 58 -253z m-3799 -880 c69 -32 131 -94 165 -166 22 -47 26 -70 26
-141 0 -71 -4 -94 -26 -140 -83 -175 -289 -246 -461 -159 -62 31 -133 110
-158 175 -29 79 -28 192 4 260 81 175 278 249 450 171z m3070 -1 c60 -30 123
-92 158 -158 19 -37 23 -58 23 -143 0 -86 -3 -107 -25 -150 -68 -140 -232
-219 -378 -181 -329 84 -352 530 -34 648 69 26 186 18 256 -16z m-564 -438
c28 -107 143 -233 254 -277 l51 -20 -1415 0 -1415 -1 71 35 c116 56 218 183
239 297 l7 38 1092 2 c962 3 1092 1 1098 -12 3 -8 12 -36 18 -62z"/>
<path d="M3346 5575 c-44 -22 -46 -42 -44 -383 l3 -324 28 -24 29 -25 500 3
500 3 19 24 c18 22 19 43 19 361 0 326 -1 338 -20 355 -19 17 -50 19 -517 19
-319 1 -504 -3 -517 -9z m954 -370 l0 -275 -445 0 -445 0 0 275 0 275 445 0
445 0 0 -275z"/>
<path d="M6194 5582 c-92 -5 -89 7 -88 -373 2 -366 3 -372 66 -384 18 -3 188
-5 376 -3 l344 3 25 29 c34 39 31 64 -46 381 -34 138 -63 260 -66 272 -3 12
-16 34 -28 49 l-24 27 -254 1 c-140 1 -277 0 -305 -2z m515 -139 c14 -52 121
-501 121 -507 0 -4 -139 -6 -310 -6 l-310 0 0 275 0 275 245 0 244 0 10 -37z"/>
<path d="M3614 4191 c-105 -64 -111 -222 -12 -292 41 -30 132 -38 174 -16 70
37 111 115 99 188 -8 45 -51 101 -96 125 -40 20 -127 18 -165 -5z m136 -101
c41 -41 12 -120 -45 -120 -29 0 -75 40 -75 65 0 20 19 57 34 67 21 14 66 8 86
-12z"/>
<path d="M6727 4208 c-126 -26 -174 -178 -90 -279 77 -92 230 -73 282 34 27
56 27 102 -1 157 -38 74 -107 106 -191 88z m86 -110 c9 -7 20 -27 23 -45 12
-63 -71 -108 -116 -63 -24 24 -26 77 -3 102 19 21 71 24 96 6z"/>
<path d="M7550 6495 c-13 -16 -33 -238 -24 -267 11 -34 78 -34 88 0 13 42 25
245 15 263 -12 23 -61 25 -79 4z"/>
<path d="M7857 6202 c-86 -86 -101 -114 -75 -140 30 -30 62 -13 151 76 48 48
87 95 87 104 0 9 -7 24 -16 32 -31 31 -57 19 -147 -72z"/>
<path d="M7917 5872 c-20 -22 -22 -53 -5 -70 8 -8 53 -12 138 -12 110 0 129 2
143 18 22 24 21 45 -1 65 -15 14 -41 17 -139 17 -103 0 -122 -3 -136 -18z"/>
</g>
</svg>
